<?xml version="1.0" encoding="utf-8"?>
<!-- Generator: Adobe Illustrator 16.0.0, SVG Export Plug-In . SVG Version: 6.00 Build 0)  -->
<!DOCTYPE svg PUBLIC "-//W3C//DTD SVG 1.1//EN" "http://www.w3.org/Graphics/SVG/1.1/DTD/svg11.dtd">
<svg version="1.1" id="Layer_1" xmlns="http://www.w3.org/2000/svg" xmlns:xlink="http://www.w3.org/1999/xlink" x="0px" y="0px"
	 width="512px" height="512px" viewBox="0 0 512 512" enable-background="new 0 0 512 512" xml:space="preserve">
<g>
	<defs>
		<rect id="SVGID_1_" x="0" width="512" height="512"/>
	</defs>
	<clipPath id="SVGID_2_">
		<use xlink:href="#SVGID_1_"  overflow="visible"/>
	</clipPath>
	<path clip-path="url(#SVGID_2_)" fill="#FFC013" d="M442.913,175.474c50.486,153.183-5.811,271.929-137.409,298.788
		c-3.578-17.135-4.228-45.008-7.857-68.301c89.483-23.311,120.211-99.456,87.977-215.441
		C403.697,185.514,424.844,180.48,442.913,175.474"/>
</g>
<g>
	<g>
		<defs>
			<path id="SVGID_3_" d="M385.622,190.52c32.234,115.985,1.507,192.13-87.977,215.441c3.631,23.293,4.278,51.166,7.856,68.302
				C437.104,447.401,493.4,328.656,442.913,175.474C424.844,180.48,403.697,185.514,385.622,190.52"/>
		</defs>
		<clipPath id="SVGID_4_">
			<use xlink:href="#SVGID_3_"  overflow="visible"/>
		</clipPath>
		<path clip-path="url(#SVGID_4_)" fill="#F17124" d="M333.904,466.664l-25.896-63.049c4.481-1.773,6.806-2.041,10.989-4.283
			l30.138,61.938C345.075,463.672,337.965,466.885,333.904,466.664"/>
	</g>
	<g>
		<defs>
			<path id="SVGID_5_" d="M473.821,290.296C427.722,179.089,448.963,99.77,534.949,65.751
				c-6.437-22.679-10.469-50.267-16.104-66.841C391.485,41.576,350.044,166.288,418.783,312.197
				C436.111,305.031,456.49,297.463,473.821,290.296"/>
		</defs>
		<clipPath id="SVGID_6_">
			<use xlink:href="#SVGID_5_"  overflow="visible"/>
		</clipPath>
		
			<rect x="385.171" y="235.097" transform="matrix(0.9926 -0.1216 0.1216 0.9926 -26.3939 53.6861)" clip-path="url(#SVGID_6_)" fill="#F17124" width="83.002" height="16.001"/>
	</g>
	<g>
		<defs>
			<path id="SVGID_7_" d="M445.293,446.994c-11.44-119.84,32.14-189.436,124.324-196.728c0.501-23.57,4.742-51.126,4.218-68.625
				C439.559,185.06,363.35,292.124,386.251,451.782C404.919,450.016,426.621,448.76,445.293,446.994"/>
		</defs>
		<clipPath id="SVGID_8_">
			<use xlink:href="#SVGID_7_"  overflow="visible"/>
		</clipPath>
		
			<rect x="385.256" y="308.12" transform="matrix(0.9846 0.175 -0.175 0.9846 61.9063 -69.804)" clip-path="url(#SVGID_8_)" fill="#F17124" width="83.003" height="16.001"/>
	</g>
	<g>
		<defs>
			<path id="SVGID_9_" d="M296.285,548.732C335.554,434.94,404.06,389.677,490.967,421.256
				c10.227-21.239,25.509-44.557,32.285-60.697C399.65,308.006,285.92,373.838,240.574,528.614
				C258.294,534.745,278.563,542.599,296.285,548.732"/>
		</defs>
		<clipPath id="SVGID_10_">
			<use xlink:href="#SVGID_9_"  overflow="visible"/>
		</clipPath>
		
			<rect x="355.179" y="375.539" transform="matrix(0.8234 0.5674 -0.5674 0.8234 287.6736 -157.3619)" clip-path="url(#SVGID_10_)" fill="#F17124" width="82.997" height="15.999"/>
	</g>
</g>
<g>
	<g>
		<defs>
			<rect id="SVGID_11_" x="0" width="512" height="512"/>
		</defs>
		<clipPath id="SVGID_12_">
			<use xlink:href="#SVGID_11_"  overflow="visible"/>
		</clipPath>
		<path clip-path="url(#SVGID_12_)" fill="#BD212F" d="M412.644,188.25c88.229-29.238,52.08-115.02,37.437-140.956
			c-1.387-2.452-3.088-5.319-6.233-4.549c-4.265,1.046-32.31,10.981-36.802,13.423c-2.61,1.418-1.815,4.052-1.119,5.649
			c10.05,23.086,25.208,67.342-8.916,78.649c-34.126,11.308-48.02-33.365-53.744-57.884c-0.396-1.694-1.329-4.287-4.273-3.864
			c-5.062,0.726-33.863,9.631-37.91,11.337c-2.98,1.26-2.638,4.576-2.28,7.37C302.539,126.975,324.413,217.487,412.644,188.25"/>
	</g>
	<g>
		<defs>
			<rect id="SVGID_13_" x="0" width="512" height="512"/>
		</defs>
		<clipPath id="SVGID_14_">
			<use xlink:href="#SVGID_13_"  overflow="visible"/>
		</clipPath>
		<path clip-path="url(#SVGID_14_)" fill="#BD212F" d="M79.865,48.258l89.719-11.417c4.526-0.576,8.662,2.629,9.237,7.156
			c0.576,4.527-2.623,8.666-7.151,9.242l-36.908,4.696l11.106,87.28c0.575,4.527-2.625,8.666-7.151,9.242
			c-4.527,0.576-8.663-2.629-9.239-7.156l-11.106-87.28L81.95,64.656c-4.526,0.576-8.662-2.629-9.238-7.156
			C72.137,52.973,75.338,48.834,79.865,48.258"/>
	</g>
	<g>
		<defs>
			<rect id="SVGID_15_" x="0" width="512" height="512"/>
		</defs>
		<clipPath id="SVGID_16_">
			<use xlink:href="#SVGID_15_"  overflow="visible"/>
		</clipPath>
		<path clip-path="url(#SVGID_16_)" fill="#FFC013" d="M229.339,120.078c-3.207-8.232-9.368-17.584-23.296-17.557
			c-17.236,0.034-124.582,13.694-140.784,17.916c-13.479,3.512-17.113,14.059-18.157,22.831
			c-1.043,8.772,4.672,219.193,7.089,229.688l225.812-28.735C279.714,333.456,232.546,128.311,229.339,120.078"/>
	</g>
	<g>
		<defs>
			<rect id="SVGID_17_" x="0" width="512" height="512"/>
		</defs>
		<clipPath id="SVGID_18_">
			<use xlink:href="#SVGID_17_"  overflow="visible"/>
		</clipPath>
		<path clip-path="url(#SVGID_18_)" fill="#482E1F" d="M200.631,240.29c-0.797-5.703-101.496,5.844-100.938,11.701
			c1.636,17.139,25.342,37.938,55.264,34.866C182.778,283.998,203.119,258.092,200.631,240.29"/>
	</g>
	<g>
		<defs>
			<rect id="SVGID_19_" x="0" width="512" height="512"/>
		</defs>
		<clipPath id="SVGID_20_">
			<use xlink:href="#SVGID_19_"  overflow="visible"/>
		</clipPath>
		<path clip-path="url(#SVGID_20_)" fill="#482E1F" d="M214.117,186.256c1.102,8.657-5.022,16.567-13.681,17.669
			c-8.654,1.102-16.567-5.023-17.669-13.68c-1.102-8.657,5.025-16.567,13.68-17.669C205.106,171.474,213.016,177.6,214.117,186.256"
			/>
	</g>
	<g>
		<defs>
			<rect id="SVGID_21_" x="0" width="512" height="512"/>
		</defs>
		<clipPath id="SVGID_22_">
			<use xlink:href="#SVGID_21_"  overflow="visible"/>
		</clipPath>
		<path clip-path="url(#SVGID_22_)" fill="#482E1F" d="M105.71,200.051c1.102,8.657-5.025,16.567-13.681,17.669
			c-8.657,1.103-16.567-5.022-17.67-13.679c-1.102-8.657,5.022-16.568,13.681-17.67C96.695,185.27,104.608,191.395,105.71,200.051"
			/>
	</g>
	<g>
		<defs>
			<rect id="SVGID_23_" x="0" width="512" height="512"/>
		</defs>
		<clipPath id="SVGID_24_">
			<use xlink:href="#SVGID_23_"  overflow="visible"/>
		</clipPath>
		<path clip-path="url(#SVGID_24_)" fill="#F17124" d="M387.531,661.25c1.006,12.12-3.857,20.075-17.068,23.19
			c-37.557,8.859-288.721,46.471-322.937,49.095c-10.994,0.845-20.011-4.164-23.188-17.069
			c-8.219-33.361-50.812-313.519-52.41-344.741c-0.521-10.168,7.396-21.106,17.069-23.19
			c45.149-9.726,285.042-46.195,322.935-49.097c9.023-0.688,21.305,7.065,23.189,17.072
			C338.646,335.176,384.799,628.199,387.531,661.25"/>
	</g>
	<g>
		<defs>
			<rect id="SVGID_25_" x="0" width="512" height="512"/>
		</defs>
		<clipPath id="SVGID_26_">
			<use xlink:href="#SVGID_25_"  overflow="visible"/>
		</clipPath>
		<path clip-path="url(#SVGID_26_)" fill="#BD212F" d="M217.241,356.04c-24.771-11.616-42.009,18.336-44.47,40.494
			c-8.883-20.448-34.182-43.99-54.427-25.589c-29.755,27.043,26.746,105.168,65.07,124.479c2.968,1.494,5.649,1.162,8.313-1.24
			C223.679,465.373,253.652,373.116,217.241,356.04"/>
	</g>
</g>
</svg>
